<svg width="18" height="21" viewBox="0 0 18 21" fill="none" xmlns="http://www.w3.org/2000/svg">
<path fill-rule="evenodd" clip-rule="evenodd" d="M5.48907 -5.72205e-05H12.0033C14.8645 -5.72205e-05 17.1767 1.12005 17.2083 3.96742V19.8583C17.2083 20.0362 17.1661 20.2142 17.0816 20.3712C16.9444 20.6225 16.7121 20.8109 16.4271 20.8946C16.1526 20.9784 15.8464 20.9365 15.593 20.79L8.75146 17.3982L1.89939 20.79C1.74208 20.8727 1.56154 20.926 1.38205 20.926C0.79081 20.926 0.315704 20.4445 0.315704 19.8583V3.96742C0.315704 1.12005 2.63844 -5.72205e-05 5.48907 -5.72205e-05ZM4.77114 7.9768H12.7212C13.1752 7.9768 13.5447 7.60937 13.5447 7.14981C13.5447 6.6892 13.1752 6.32281 12.7212 6.32281H4.77114C4.31715 6.32281 3.94762 6.6892 3.94762 7.14981C3.94762 7.60937 4.31715 7.9768 4.77114 7.9768Z" fill="#F1F6FB"/>
</svg>
