<svg width="22" height="21" viewBox="0 0 22 21" fill="none" xmlns="http://www.w3.org/2000/svg">
<path fill-rule="evenodd" clip-rule="evenodd" d="M0.163124 10.484C0.163124 4.96936 4.608 -5.72205e-05 10.7421 -5.72205e-05C16.739 -5.72205e-05 21.2789 4.87501 21.2789 10.4525C21.2789 16.9211 15.9577 20.9365 10.721 20.9365C8.98953 20.9365 7.06799 20.4752 5.52654 19.5736C4.98808 19.2486 4.53409 19.0075 3.95341 19.1962L1.82071 19.8252C1.28226 19.993 0.796598 19.5736 0.954966 19.0075L1.66235 16.659C1.77848 16.334 1.75737 15.9881 1.58844 15.7155C0.680461 14.059 0.163124 12.2453 0.163124 10.484ZM9.34863 10.4841C9.34863 11.2284 9.95043 11.826 10.7 11.8365C11.4496 11.8365 12.0514 11.2284 12.0514 10.4946C12.0514 9.75019 11.4496 9.1526 10.7 9.1526C9.96099 9.14211 9.34863 9.75019 9.34863 10.4841ZM14.2155 10.4945C14.2155 11.2284 14.8173 11.8365 15.5669 11.8365C16.3165 11.8365 16.9183 11.2284 16.9183 10.4945C16.9183 9.75016 16.3165 9.15257 15.5669 9.15257C14.8173 9.15257 14.2155 9.75016 14.2155 10.4945ZM5.83273 11.8365C5.09368 11.8365 4.48132 11.2284 4.48132 10.4945C4.48132 9.75016 5.08312 9.15257 5.83273 9.15257C6.58234 9.15257 7.18414 9.75016 7.18414 10.4945C7.18414 11.2284 6.58234 11.826 5.83273 11.8365Z" fill="#F1F6FB"/>
</svg>
