<svg width="14" height="18" viewBox="0 0 14 18" fill="none" xmlns="http://www.w3.org/2000/svg">
<g clip-path="url(#clip0_0_485)">
<path d="M1.98858 16.3306C2.09261 17.2475 2.90896 18 3.80496 18H10.1947C11.0913 18 11.9083 17.2475 12.0111 16.3306L13.3423 4.5141H0.658844L1.98858 16.3306ZM9.95848 6.03266C9.98552 5.71833 10.2506 5.48713 10.5524 5.51262C10.8556 5.53962 11.0802 5.81481 11.0561 6.12823L10.2753 15.6243C10.2503 15.9359 9.98199 16.1677 9.68225 16.1413C9.3781 16.1155 9.15388 15.8409 9.17915 15.5284L9.95848 6.03235V6.03266ZM6.45062 6.07908C6.45062 5.76566 6.69658 5.51019 6.99868 5.51019C7.30077 5.51019 7.54967 5.76566 7.54967 6.07908V15.5764C7.54967 15.8898 7.30371 16.1437 6.99868 16.1437C6.69365 16.1437 6.45062 15.8898 6.45062 15.5764V6.07908ZM3.44762 5.51262C3.74971 5.48713 4.01566 5.71833 4.04152 6.03266L4.82055 15.5287C4.84759 15.8412 4.62131 16.1155 4.32069 16.1416C4.01654 16.168 3.7503 15.9359 3.72532 15.6246L2.94511 6.12853C2.92131 5.81511 3.14523 5.53962 3.44791 5.51292L3.44762 5.51262Z" fill="url(#paint0_linear_0_485)"/>
<path d="M8.92084 1.11078C8.93348 1.04979 8.942 0.987291 8.942 0.919934V0.873209C8.942 0.39261 8.56115 0 8.09597 0H6.19143C5.72654 0 5.34451 0.39261 5.34451 0.873209V0.919934C5.34451 0.987291 5.3545 1.04979 5.36714 1.11078H8.92055H8.92084Z" fill="url(#paint1_linear_0_485)"/>
<path d="M12.6626 1.89145H1.33738C0.560987 1.90328 0.00323251 2.38297 0 3.12511V3.64849H14V3.12511C13.9959 2.38297 13.4378 1.90328 12.6626 1.89175V1.89145Z" fill="url(#paint2_linear_0_485)"/>
</g>
<defs>
<linearGradient id="paint0_linear_0_485" x1="0.658844" y1="4.5141" x2="0.658844" y2="18" gradientUnits="userSpaceOnUse">
<stop stop-color="#FE6587"/>
<stop offset="1" stop-color="#F52D6A"/>
</linearGradient>
<linearGradient id="paint1_linear_0_485" x1="5.34451" y1="0" x2="5.34451" y2="1.11078" gradientUnits="userSpaceOnUse">
<stop stop-color="#FE6587"/>
<stop offset="1" stop-color="#F52D6A"/>
</linearGradient>
<linearGradient id="paint2_linear_0_485" x1="0" y1="1.89145" x2="0" y2="3.64849" gradientUnits="userSpaceOnUse">
<stop stop-color="#FE6587"/>
<stop offset="1" stop-color="#F52D6A"/>
</linearGradient>
<clipPath id="clip0_0_485">
<rect width="14" height="18" fill="white"/>
</clipPath>
</defs>
</svg>
