<svg width="18" height="18" viewBox="0 0 18 18" fill="none" xmlns="http://www.w3.org/2000/svg">
<path fill-rule="evenodd" clip-rule="evenodd" d="M12.4398 0.703176C13.0066 0.703176 13.5724 0.782436 14.1105 0.96144C17.4257 2.03012 18.6203 5.63691 17.6224 8.78951C17.0565 10.4005 16.1314 11.8709 14.9197 13.0722C13.1853 14.7376 11.2821 16.2159 9.2333 17.4894L9.00875 17.6239L8.77523 17.4805C6.71927 16.2159 4.80523 14.7376 3.05466 13.0633C1.85109 11.862 0.925057 10.4005 0.350217 8.78951C-0.664736 5.63691 0.529855 2.03012 3.881 0.942738C4.14147 0.853681 4.41003 0.791342 4.67949 0.75661H4.78727C5.03966 0.720096 5.29025 0.703176 5.54175 0.703176H5.64055C6.20641 0.720096 6.7543 0.818059 7.28513 0.997062H7.33812C7.37405 1.01398 7.401 1.03268 7.41896 1.04961C7.61746 1.11284 7.80518 1.18408 7.98482 1.28204L8.32613 1.43344C8.4086 1.47705 8.50118 1.54369 8.58118 1.60128C8.63187 1.63777 8.67752 1.67063 8.71235 1.6917C8.72701 1.70028 8.74191 1.7089 8.75692 1.71759C8.83394 1.76217 8.91416 1.8086 8.98181 1.86002C9.9797 1.10393 11.1914 0.69427 12.4398 0.703176ZM14.8287 7.11536C15.1969 7.10556 15.5113 6.81257 15.5383 6.43764V6.33166C15.5652 5.08398 14.8026 3.95385 13.6431 3.51747C13.2748 3.39191 12.8706 3.58872 12.7359 3.96276C12.6102 4.33679 12.8078 4.74645 13.185 4.87915C13.7607 5.09288 14.1461 5.65483 14.1461 6.27734V6.30494C14.129 6.50888 14.191 6.7057 14.3167 6.85709C14.4425 7.00849 14.6311 7.09666 14.8287 7.11536Z" fill="url(#paint0_linear_0_326)"/>
<defs>
<linearGradient id="paint0_linear_0_326" x1="-9.15527e-05" y1="0.703033" x2="-9.15527e-05" y2="17.6239" gradientUnits="userSpaceOnUse">
<stop stop-color="#FE6587"/>
<stop offset="1" stop-color="#F52D6A"/>
</linearGradient>
</defs>
</svg>
