<svg width="19" height="18" viewBox="0 0 19 18" fill="none" xmlns="http://www.w3.org/2000/svg">
<path fill-rule="evenodd" clip-rule="evenodd" d="M0.328522 9.10912C0.328522 4.41771 4.1099 0.190094 9.32837 0.190094C14.4301 0.190094 18.2923 4.33744 18.2923 9.08237C18.2923 14.5854 13.7654 18.0014 9.31041 18.0014C7.83738 18.0014 6.20267 17.609 4.89132 16.8419C4.43324 16.5654 4.04702 16.3603 3.55302 16.5208L1.73868 17.056C1.2806 17.1987 0.867435 16.8419 1.00216 16.3603L1.60395 14.3624C1.70275 14.0859 1.68479 13.7916 1.54108 13.5597C0.768634 12.1505 0.328522 10.6075 0.328522 9.10912ZM8.14309 9.10907C8.14309 9.74232 8.65506 10.2507 9.29277 10.2596C9.93048 10.2596 10.4425 9.74232 10.4425 9.11799C10.4425 8.48474 9.93048 7.97635 9.29277 7.97635C8.66404 7.96743 8.14309 8.48474 8.14309 9.10907ZM12.2826 9.11826C12.2826 9.7426 12.7946 10.2599 13.4323 10.2599C14.07 10.2599 14.582 9.7426 14.582 9.11826C14.582 8.48501 14.07 7.97663 13.4323 7.97663C12.7946 7.97663 12.2826 8.48501 12.2826 9.11826ZM5.15161 10.2599C4.52287 10.2599 4.00193 9.74259 4.00193 9.11825C4.00193 8.485 4.51389 7.97662 5.15161 7.97662C5.78932 7.97662 6.30129 8.485 6.30129 9.11825C6.30129 9.74259 5.78932 10.251 5.15161 10.2599Z" fill="#B6B6B6"/>
</svg>
