<svg width="22" height="20" viewBox="0 0 22 20" fill="none" xmlns="http://www.w3.org/2000/svg">
<path fill-rule="evenodd" clip-rule="evenodd" d="M14.7228 0.000205296C15.389 0.000205296 16.0542 0.093373 16.6866 0.303786C20.5835 1.55998 21.9877 5.79964 20.8147 9.50541C20.1496 11.3991 19.0621 13.1274 17.6378 14.5396C15.5991 16.4972 13.3619 18.2349 10.9536 19.7319L10.6897 19.8899L10.4152 19.7214C7.99848 18.2349 5.74859 16.4972 3.69086 14.5291C2.2761 13.117 1.18758 11.3991 0.511873 9.50541C-0.681169 5.79964 0.723031 1.55998 4.66218 0.281802C4.96836 0.177119 5.28404 0.103841 5.60078 0.063015H5.72747C6.02415 0.020095 6.31872 0.000205296 6.61434 0.000205296H6.73047C7.39562 0.020095 8.03965 0.135246 8.66362 0.345659H8.72592C8.76815 0.365548 8.79982 0.387532 8.82094 0.407422C9.05427 0.481746 9.27493 0.565493 9.48609 0.680644L9.88729 0.858605C9.98423 0.90987 10.093 0.988202 10.1871 1.0559C10.2467 1.09879 10.3003 1.13742 10.3413 1.16219C10.3585 1.17227 10.376 1.1824 10.3937 1.19262C10.4842 1.24501 10.5785 1.29959 10.658 1.36004C11.831 0.471278 13.2553 -0.010263 14.7228 0.000205296ZM17.5306 7.53735C17.9635 7.52584 18.333 7.18143 18.3647 6.74072V6.61614C18.3963 5.14954 17.5 3.82111 16.1369 3.30816C15.7041 3.16056 15.229 3.39191 15.0706 3.83158C14.9228 4.27125 15.1551 4.75279 15.5985 4.90877C16.2753 5.16 16.7282 5.82055 16.7282 6.55229V6.58474C16.7081 6.82446 16.781 7.05581 16.9288 7.23377C17.0766 7.41173 17.2983 7.51537 17.5306 7.53735Z" fill="#F1F6FB"/>
</svg>
