<svg width="13" height="20" viewBox="0 0 13 20" fill="none" xmlns="http://www.w3.org/2000/svg">
<path d="M6.14681 12.0536C8.03231 12.0536 9.56041 10.5252 9.56041 8.64V3.4136C9.56041 1.5281 8.03231 0 6.14681 0C4.26132 0 2.73322 1.52842 2.73322 3.4136V8.64C2.73322 10.5255 4.26163 12.0536 6.14681 12.0536Z" fill="url(#paint0_linear_0_489)"/>
<path d="M12.1635 8.63999C12.1635 8.3081 11.8944 8.03934 11.5629 8.03934C11.2313 8.03934 10.9622 8.3081 10.9622 8.63999C10.9622 11.2951 8.80189 13.4554 6.14676 13.4554C3.49163 13.4554 1.33132 11.2951 1.33132 8.63999C1.33132 8.3081 1.06223 8.03934 0.73066 8.03934C0.399088 8.03934 0.130005 8.3081 0.130005 8.63999C0.130005 11.7549 2.50935 14.3239 5.54611 14.6265V18.1035H3.65423C3.32266 18.1035 3.05358 18.3723 3.05358 18.7042C3.05358 19.036 3.32266 19.3048 3.65423 19.3048H8.63897C8.97086 19.3048 9.23962 19.036 9.23962 18.7042C9.23962 18.3723 8.97086 18.1035 8.63897 18.1035H6.7471V14.6265C9.78385 14.3239 12.1635 11.7549 12.1635 8.63999Z" fill="url(#paint1_linear_0_489)"/>
<defs>
<linearGradient id="paint0_linear_0_489" x1="2.73322" y1="0" x2="2.73322" y2="12.0536" gradientUnits="userSpaceOnUse">
<stop stop-color="#FE6587"/>
<stop offset="1" stop-color="#F52D6A"/>
</linearGradient>
<linearGradient id="paint1_linear_0_489" x1="0.130005" y1="8.03934" x2="0.130005" y2="19.3048" gradientUnits="userSpaceOnUse">
<stop stop-color="#FE6587"/>
<stop offset="1" stop-color="#F52D6A"/>
</linearGradient>
</defs>
</svg>
