<svg width="80" height="17" viewBox="0 0 80 17" fill="none" xmlns="http://www.w3.org/2000/svg">
<g clip-path="url(#clip0_0_352)">
<path d="M80 8.49992L77.6406 7.1313L75.8902 6.11623C75.3767 4.35178 74.3079 2.80204 72.8438 1.69935C71.3798 0.596661 69.5994 0.000416773 67.7697 0L8.46062 0C7.34958 -1.6633e-08 6.24942 0.219857 5.22295 0.647017C4.19649 1.07418 3.26381 1.70028 2.47819 2.48957C1.69257 3.27886 1.06938 4.21588 0.644202 5.24714C0.219026 6.2784 0.000190735 7.38369 0.000190735 8.49992C0.000190735 9.61614 0.219026 10.7214 0.644202 11.7527C1.06938 12.7839 1.69257 13.721 2.47819 14.5103C3.26381 15.2996 4.19649 15.9257 5.22295 16.3528C6.24942 16.78 7.34958 16.9998 8.46062 16.9998H67.7697C69.5994 16.9994 71.3798 16.4032 72.8438 15.3005C74.3079 14.1978 75.3767 12.6481 75.8902 10.8836L77.6403 9.86854L80 8.49992Z" fill="black" fill-opacity="0.8"/>
<path d="M8.86019 6.1115C10.3672 6.1115 11.4232 7.1015 11.4232 8.526C11.4232 9.461 11.0657 10.033 10.4442 10.033C10.0922 10.033 9.85019 9.846 9.78419 9.5105C9.56419 9.8515 9.20119 10.033 8.73919 10.033C7.95819 10.033 7.39169 9.439 7.39169 8.6195C7.39169 7.8 7.95819 7.217 8.73919 7.217C9.16269 7.217 9.52019 7.3765 9.74569 7.6845V7.239H10.2242V9.219C10.2242 9.5105 10.3672 9.615 10.5377 9.615C10.8622 9.615 11.0492 9.219 11.0492 8.5315C11.0492 7.2995 10.1582 6.4745 8.86019 6.4745C7.54569 6.4745 6.66569 7.3545 6.66569 8.603C6.66569 9.8625 7.53469 10.7425 8.83819 10.7425C9.17369 10.7425 9.57519 10.671 9.89969 10.5005L10.0207 10.8525C9.68519 11.023 9.22869 11.111 8.83819 11.111C7.30919 11.111 6.26419 10.0605 6.26419 8.603C6.26419 7.151 7.32019 6.1115 8.86019 6.1115ZM8.81619 9.604C9.34969 9.604 9.75669 9.23 9.75669 8.6195C9.75669 8.009 9.34969 7.6405 8.81619 7.6405C8.26619 7.6405 7.88119 8.02 7.88119 8.6195C7.88119 9.2135 8.26619 9.604 8.81619 9.604ZM15.5885 10L15.165 9.0375H13.119L12.6955 10H12.129L13.8725 6.15H14.417L16.166 10H15.5885ZM13.3115 8.5975H14.9725L14.142 6.711L13.3115 8.5975ZM19.3584 5.919H19.8864V10H19.3804V9.538C19.1439 9.868 18.7699 10.033 18.3409 10.033C17.4884 10.033 16.8669 9.4335 16.8669 8.5425C16.8669 7.6515 17.4884 7.0575 18.3409 7.0575C18.7534 7.0575 19.1164 7.2115 19.3584 7.525V5.919ZM18.3849 9.571C18.9404 9.571 19.3639 9.164 19.3639 8.5425C19.3639 7.921 18.9404 7.5195 18.3849 7.5195C17.8239 7.5195 17.4004 7.921 17.4004 8.5425C17.4004 9.164 17.8239 9.571 18.3849 9.571ZM22.447 7.0575C23.2445 7.0575 23.6955 7.4425 23.6955 8.24V10H23.195V9.615C23.019 9.879 22.6945 10.033 22.238 10.033C21.578 10.033 21.16 9.681 21.16 9.175C21.16 8.7075 21.4625 8.3225 22.3315 8.3225H23.1675V8.218C23.1675 7.7725 22.909 7.514 22.3865 7.514C22.04 7.514 21.688 7.635 21.4625 7.8275L21.2425 7.4315C21.545 7.1895 21.9795 7.0575 22.447 7.0575ZM22.326 9.626C22.722 9.626 23.0355 9.4445 23.1675 9.109V8.702H22.3535C21.831 8.702 21.6825 8.9055 21.6825 9.153C21.6825 9.4445 21.9245 9.626 22.326 9.626ZM28.8191 7.0575C29.5286 7.0575 30.0126 7.4645 30.0126 8.3225V10H29.4846V8.383C29.4846 7.811 29.2096 7.5305 28.7311 7.5305C28.2031 7.5305 27.8566 7.866 27.8566 8.4985V10H27.3286V8.383C27.3286 7.811 27.0536 7.5305 26.5751 7.5305C26.0471 7.5305 25.7006 7.866 25.7006 8.4985V10H25.1726V7.085H25.6786V7.5195C25.8876 7.2225 26.2451 7.0575 26.6851 7.0575C27.1306 7.0575 27.5046 7.2335 27.6971 7.5965C27.9171 7.2665 28.3241 7.0575 28.8191 7.0575ZM37.6356 10H37.1076L37.1021 7.195L35.7106 9.5325H35.4576L34.0661 7.2115V10H33.5381V6.15H33.9891L35.5951 8.856L37.1791 6.15H37.6301L37.6356 10ZM40.4626 10.033C39.5881 10.033 38.9446 9.4115 38.9446 8.5425C38.9446 7.6735 39.5881 7.0575 40.4626 7.0575C41.3371 7.0575 41.9751 7.6735 41.9751 8.5425C41.9751 9.4115 41.3371 10.033 40.4626 10.033ZM40.4626 9.571C41.0236 9.571 41.4416 9.164 41.4416 8.5425C41.4416 7.921 41.0236 7.5195 40.4626 7.5195C39.9016 7.5195 39.4781 7.921 39.4781 8.5425C39.4781 9.164 39.9016 9.571 40.4626 9.571ZM44.7618 7.0575C45.4713 7.0575 45.9718 7.4645 45.9718 8.3225V10H45.4438V8.383C45.4438 7.811 45.1578 7.5305 44.6573 7.5305C44.0963 7.5305 43.7333 7.866 43.7333 8.4985V10H43.2053V5.919H43.7333V7.4975C43.9533 7.217 44.3163 7.0575 44.7618 7.0575ZM48.5104 7.0575C49.3079 7.0575 49.7589 7.4425 49.7589 8.24V10H49.2584V9.615C49.0824 9.879 48.7579 10.033 48.3014 10.033C47.6414 10.033 47.2234 9.681 47.2234 9.175C47.2234 8.7075 47.5259 8.3225 48.3949 8.3225H49.2309V8.218C49.2309 7.7725 48.9724 7.514 48.4499 7.514C48.1034 7.514 47.7514 7.635 47.5259 7.8275L47.3059 7.4315C47.6084 7.1895 48.0429 7.0575 48.5104 7.0575ZM48.3894 9.626C48.7854 9.626 49.0989 9.4445 49.2309 9.109V8.702H48.4169C47.8944 8.702 47.7459 8.9055 47.7459 9.153C47.7459 9.4445 47.9879 9.626 48.3894 9.626ZM54.8825 7.0575C55.592 7.0575 56.076 7.4645 56.076 8.3225V10H55.548V8.383C55.548 7.811 55.273 7.5305 54.7945 7.5305C54.2665 7.5305 53.92 7.866 53.92 8.4985V10H53.392V8.383C53.392 7.811 53.117 7.5305 52.6385 7.5305C52.1105 7.5305 51.764 7.866 51.764 8.4985V10H51.236V7.085H51.742V7.5195C51.951 7.2225 52.3085 7.0575 52.7485 7.0575C53.194 7.0575 53.568 7.2335 53.7605 7.5965C53.9805 7.2665 54.3875 7.0575 54.8825 7.0575ZM60.1982 8.559C60.1982 8.603 60.1927 8.669 60.1872 8.7185H57.8222C57.8882 9.23 58.3007 9.571 58.8782 9.571C59.2192 9.571 59.5052 9.4555 59.7197 9.219L60.0112 9.56C59.7472 9.868 59.3457 10.033 58.8617 10.033C57.9212 10.033 57.2942 9.4115 57.2942 8.5425C57.2942 7.679 57.9157 7.0575 58.7572 7.0575C59.5987 7.0575 60.1982 7.6625 60.1982 8.559ZM58.7572 7.503C58.2512 7.503 57.8772 7.844 57.8222 8.339H59.6922C59.6372 7.8495 59.2687 7.503 58.7572 7.503ZM63.6534 5.919H64.1814V10H63.6754V9.538C63.4389 9.868 63.0649 10.033 62.6359 10.033C61.7834 10.033 61.1619 9.4335 61.1619 8.5425C61.1619 7.6515 61.7834 7.0575 62.6359 7.0575C63.0484 7.0575 63.4114 7.2115 63.6534 7.525V5.919ZM62.6799 9.571C63.2354 9.571 63.6589 9.164 63.6589 8.5425C63.6589 7.921 63.2354 7.5195 62.6799 7.5195C62.1189 7.5195 61.6954 7.921 61.6954 8.5425C61.6954 9.164 62.1189 9.571 62.6799 9.571Z" fill="white"/>
</g>
<defs>
<clipPath id="clip0_0_352">
<rect width="80" height="17" fill="white"/>
</clipPath>
</defs>
</svg>
